<mxGraphModel dx="0" dy="0" grid="1" gridSize="10" guides="1" tooltips="1" connect="1" arrows="1" fold="1" page="0" pageScale="1" background="none" math="0" shadow="0">
  <root>
    <mxCell id="0" />
    <mxCell id="1" parent="0" />
    <mxCell id="node0" parent="1" vertex="1" value="&lt;p style=&quot;margin:0px;margin-top:4px;text-align:center;&quot;&gt;&lt;b&gt;atm&lt;/b&gt;&lt;/p&gt;&lt;hr size=&quot;1&quot;/&gt;&lt;p style=&quot;margin:0 0 0 4px;line-height:1.6;&quot;&gt; address: text&lt;br/&gt; atm_247_label: text&lt;br/&gt; atm_id: text&lt;br/&gt; is_atm: boolean&lt;br/&gt; is_atm_247: boolean&lt;br/&gt; is_branch: boolean&lt;br/&gt; is_cdm: boolean&lt;br/&gt; is_household: boolean&lt;br/&gt; is_sme: boolean&lt;br/&gt; latitude: text&lt;br/&gt; longitude: text&lt;br/&gt; name: text&lt;br/&gt; phone_number: text&lt;/p&gt;" style="verticalAlign=top;align=left;overflow=fill;fontSize=14;fontFamily=Helvetica;html=1;rounded=0;shadow=0;comic=0;labelBackgroundColor=none;strokeWidth=1;">
      <mxGeometry x="-88" y="-175" width="177" height="351" as="geometry" />
    </mxCell>
    <mxCell id="node1" parent="1" vertex="1" value="&lt;p style=&quot;margin:0px;margin-top:4px;text-align:center;&quot;&gt;&lt;b&gt;branch&lt;/b&gt;&lt;/p&gt;&lt;hr size=&quot;1&quot;/&gt;&lt;p style=&quot;margin:0 0 0 4px;line-height:1.6;&quot;&gt; region: text&lt;br/&gt; province: text&lt;br/&gt; branch_name: text&lt;br/&gt; branch_id: text&lt;br/&gt; address: text&lt;/p&gt;" style="verticalAlign=top;align=left;overflow=fill;fontSize=14;fontFamily=Helvetica;html=1;rounded=0;shadow=0;comic=0;labelBackgroundColor=none;strokeWidth=1;">
      <mxGeometry x="124" y="-79" width="152" height="159" as="geometry" />
    </mxCell>
  </root>
</mxGraphModel>